<svg width="171" height="270" viewBox="0 0 171 270" fill="none" xmlns="http://www.w3.org/2000/svg">
<path d="M85.5 170.333C75.3264 170.333 66.6788 166.201 59.5573 157.937C52.4358 149.674 48.875 139.639 48.875 127.833V42.8333C48.875 31.0278 52.4358 20.993 59.5573 12.7292C66.6788 4.46527 75.3264 0.333328 85.5 0.333328C95.6736 0.333328 104.321 4.46527 111.443 12.7292C118.564 20.993 122.125 31.0278 122.125 42.8333V127.833C122.125 139.639 118.564 149.674 111.443 157.937C104.321 166.201 95.6736 170.333 85.5 170.333ZM73.2917 269.5V225.937C52.1306 222.632 34.632 211.653 20.7959 193C6.95974 174.347 0.041687 152.625 0.041687 127.833H24.4584C24.4584 147.431 30.412 164.138 42.3192 177.955C54.2263 191.772 68.62 198.676 85.5 198.667C102.388 198.667 116.786 191.758 128.693 177.941C140.6 164.124 146.55 147.421 146.542 127.833H170.958C170.958 152.625 164.04 174.347 150.204 193C136.368 211.653 118.869 222.632 97.7084 225.937V269.5H73.2917Z" fill="#EDCB87"/>
</svg>
