<svg width="1440" height="1024" viewBox="0 0 1440 1024" fill="none" xmlns="http://www.w3.org/2000/svg">
<g clip-path="url(#clip0_129_9)">
<rect width="1440" height="1024" fill="url(#paint0_linear_129_9)" style="mix-blend-mode:color-burn"/>
<path d="M226 22C226 132.4 76.6667 213.667 2 240.5" stroke="#F4BBA3" stroke-opacity="0.6" stroke-width="3"/>
<path d="M114 14C114 73.1158 38 116.632 0 131" stroke="#F4BBA3" stroke-width="3"/>
<path d="M337 0C337 186.947 113.667 324.561 2 370" stroke="#DEB260" stroke-opacity="0.4" stroke-width="4"/>
<path d="M534 14C534 283.305 178 481.544 0 547" stroke="#F4BBA3" stroke-opacity="0.4" stroke-width="2"/>
<path d="M739 14C739 369.2 246.333 630.667 0 717" stroke="#F4BBA3" stroke-opacity="0.4" stroke-width="3"/>
<path d="M1040 14C1040 462.168 346.667 792.07 0 901" stroke="#F4BBA3" stroke-opacity="0.4" stroke-width="2"/>
<path d="M1440 14C1440 531.389 658 912.246 267 1038" stroke="#F4BBA3" stroke-opacity="0.4" stroke-width="3"/>
</g>
<defs>
<linearGradient id="paint0_linear_129_9" x1="720" y1="0" x2="720" y2="1024" gradientUnits="userSpaceOnUse">
<stop stop-opacity="0.968485"/>
<stop offset="0.988281" stop-color="#CA7CFF" stop-opacity="0.42"/>
</linearGradient>
<clipPath id="clip0_129_9">
<rect width="1440" height="1024" fill="white"/>
</clipPath>
</defs>
</svg>
