<svg width="212" height="192" viewBox="0 0 212 192" fill="none" xmlns="http://www.w3.org/2000/svg">
<path d="M0.166687 191.25V21.9167H54.6709L73.7209 0.75H137.221L157.329 21.9167H211.833V191.25H116.583V158.442C131.753 155.972 144.365 148.874 154.419 137.148C164.473 125.422 169.5 111.706 169.5 96H148.333C148.333 107.642 144.188 117.608 135.898 125.898C127.608 134.188 117.642 138.333 106 138.333C94.3584 138.333 84.3924 134.188 76.1021 125.898C67.8118 117.608 63.6667 107.642 63.6667 96H42.5C42.5 111.699 47.5271 125.415 57.5813 137.148C67.6354 148.881 80.2472 155.979 95.4167 158.442V191.25H0.166687ZM106 117.167C111.821 117.167 116.806 115.092 120.954 110.944C125.103 106.795 127.174 101.814 127.167 96V53.6667C127.167 47.8458 125.092 42.8611 120.944 38.7124C116.795 34.5637 111.814 32.4929 106 32.5C100.179 32.5 95.1944 34.5743 91.0458 38.723C86.8971 42.8717 84.8263 47.8529 84.8334 53.6667V96C84.8334 101.821 86.9077 106.806 91.0564 110.954C95.205 115.103 100.186 117.174 106 117.167Z" fill="#EDCB87"/>
</svg>
