<svg width="37" height="37" viewBox="0 0 37 37" fill="none" xmlns="http://www.w3.org/2000/svg">
<path d="M9.25002 29.2918H13.875V20.0418H23.125V29.2918H27.75V15.4168L18.5 8.47933L9.25002 15.4168V29.2918ZM9.25002 32.3752C8.40211 32.3752 7.67598 32.073 7.07165 31.4687C6.46731 30.8643 6.16566 30.1387 6.16669 29.2918V15.4168C6.16669 14.9286 6.27615 14.4661 6.49506 14.0293C6.71398 13.5925 7.01563 13.2328 7.40002 12.9502L16.65 6.01266C16.9327 5.80711 17.2281 5.65294 17.5365 5.55016C17.8448 5.44738 18.166 5.396 18.5 5.396C18.8341 5.396 19.1552 5.44738 19.4636 5.55016C19.7719 5.65294 20.0674 5.80711 20.35 6.01266L29.6 12.9502C29.9854 13.2328 30.2876 13.5925 30.5065 14.0293C30.7254 14.4661 30.8344 14.9286 30.8334 15.4168V29.2918C30.8334 30.1397 30.5312 30.8659 29.9269 31.4702C29.3225 32.0745 28.5969 32.3762 27.75 32.3752H20.0417V23.1252H16.9584V32.3752H9.25002Z" fill="#E2B577"/>
</svg>
