<svg width="26" height="26" viewBox="0 0 26 26" fill="none" xmlns="http://www.w3.org/2000/svg">
<path d="M24.1373 18.1126C24.2129 18.1881 24.2728 18.2777 24.3137 18.3763C24.3546 18.475 24.3756 18.5807 24.3756 18.6875C24.3756 18.7942 24.3546 18.9 24.3137 18.9986C24.2728 19.0972 24.2129 19.1868 24.1373 19.2623L21.6998 21.6998C21.5474 21.8523 21.3406 21.9379 21.125 21.9379C20.9094 21.9379 20.7026 21.8523 20.5502 21.6998C20.3977 21.5473 20.312 21.3406 20.312 21.125C20.312 20.9094 20.3977 20.7026 20.5502 20.5501L21.6013 19.5H20.408C19.2442 19.499 18.0974 19.2207 17.0625 18.6882C16.0277 18.1557 15.1347 17.3843 14.4574 16.4379L10.2202 10.5066C9.69343 9.77053 8.99884 9.17056 8.19399 8.75639C7.38914 8.34222 6.49719 8.12577 5.59203 8.12496H3.25C3.03451 8.12496 2.82785 8.03936 2.67548 7.88699C2.5231 7.73461 2.4375 7.52795 2.4375 7.31246C2.4375 7.09697 2.5231 6.89031 2.67548 6.73794C2.82785 6.58557 3.03451 6.49996 3.25 6.49996H5.59203C6.75583 6.50093 7.90264 6.7792 8.93746 7.31171C9.97228 7.84422 10.8653 8.61564 11.5426 9.56207L15.7798 15.4933C16.3066 16.2294 17.0012 16.8294 17.806 17.2435C18.6109 17.6577 19.5028 17.8742 20.408 17.875H21.6013L20.5502 16.8248C20.3977 16.6723 20.312 16.4656 20.312 16.25C20.312 16.0344 20.3977 15.8276 20.5502 15.6751C20.7026 15.5227 20.9094 15.437 21.125 15.437C21.3406 15.437 21.5474 15.5227 21.6998 15.6751L24.1373 18.1126ZM14.5234 10.8672C14.6103 10.9292 14.7085 10.9735 14.8124 10.9976C14.9164 11.0216 15.024 11.025 15.1293 11.0074C15.2345 10.9899 15.3353 10.9518 15.4258 10.8953C15.5163 10.8388 15.5949 10.7651 15.6569 10.6782L15.7788 10.5086C16.3054 9.77205 17.0001 9.1716 17.8051 8.75707C18.6102 8.34253 19.5025 8.12584 20.408 8.12496H21.6013L20.5502 9.17512C20.3977 9.32758 20.312 9.53435 20.312 9.74996C20.312 9.96557 20.3977 10.1723 20.5502 10.3248C20.7026 10.4773 20.9094 10.5629 21.125 10.5629C21.3406 10.5629 21.5474 10.4773 21.6998 10.3248L24.1373 7.88731C24.2129 7.81185 24.2728 7.72224 24.3137 7.6236C24.3546 7.52497 24.3756 7.41924 24.3756 7.31246C24.3756 7.20569 24.3546 7.09996 24.3137 7.00132C24.2728 6.90269 24.2129 6.81308 24.1373 6.73762L21.6998 4.30012C21.5474 4.14766 21.3406 4.06201 21.125 4.06201C20.9094 4.06201 20.7026 4.14766 20.5502 4.30012C20.3977 4.45258 20.312 4.65936 20.312 4.87496C20.312 5.09057 20.3977 5.29735 20.5502 5.44981L21.6013 6.49996H20.408C19.2442 6.50093 18.0974 6.7792 17.0625 7.31171C16.0277 7.84422 15.1347 8.61564 14.4574 9.56207L14.3355 9.73168C14.2732 9.81851 14.2285 9.9168 14.2042 10.0209C14.1799 10.125 14.1763 10.2329 14.1938 10.3384C14.2112 10.4439 14.2493 10.5449 14.3059 10.6356C14.3625 10.7264 14.4364 10.805 14.5234 10.8672ZM11.4766 15.1328C11.3897 15.0708 11.2915 15.0264 11.1876 15.0024C11.0836 14.9783 10.976 14.9749 10.8707 14.9925C10.7655 15.01 10.6647 15.0481 10.5742 15.1046C10.4837 15.1611 10.4051 15.2349 10.3431 15.3217L10.2213 15.4913C9.69457 16.2279 8.99991 16.8283 8.19486 17.2429C7.3898 17.6574 6.49754 17.8741 5.59203 17.875H3.25C3.03451 17.875 2.82785 17.9606 2.67548 18.1129C2.5231 18.2653 2.4375 18.472 2.4375 18.6875C2.4375 18.903 2.5231 19.1096 2.67548 19.262C2.82785 19.4144 3.03451 19.5 3.25 19.5H5.59203C6.75583 19.499 7.90264 19.2207 8.93746 18.6882C9.97228 18.1557 10.8653 17.3843 11.5426 16.4379L11.6645 16.2682C11.7268 16.1814 11.7715 16.0831 11.7958 15.979C11.8201 15.8749 11.8237 15.767 11.8062 15.6615C11.7888 15.556 11.7507 15.455 11.6941 15.3643C11.6375 15.2736 11.5636 15.1949 11.4766 15.1328Z" fill="#222222"/>
</svg>
