<svg width="212" height="174" viewBox="0 0 212 174" fill="none" xmlns="http://www.w3.org/2000/svg">
<path d="M134.031 111.198C135.469 112.635 137.184 113.316 139.177 113.239C141.171 113.163 142.889 112.402 144.333 110.958C145.771 109.521 146.49 107.805 146.49 105.812C146.49 103.819 145.771 102.1 144.333 100.656L129.479 86.0417C131.236 83.3264 132.555 80.4514 133.437 77.4167C134.319 74.382 134.756 71.1875 134.75 67.8334C134.75 58.4097 131.434 50.462 124.802 43.99C118.171 37.5181 110.306 34.2853 101.208 34.2917C92.1041 34.2917 84.2362 37.5245 77.6045 43.99C70.9729 50.4556 67.6602 58.4034 67.6666 67.8334C67.6666 77.257 70.9825 85.2047 77.6141 91.6767C84.2458 98.1486 92.1105 101.381 101.208 101.375C104.562 101.375 107.719 101.014 110.677 100.292C113.635 99.5702 116.548 98.3339 119.417 96.5834L134.031 111.198ZM101.208 87C95.9375 87 91.4237 85.1217 87.667 81.365C83.9104 77.6084 82.0352 73.0978 82.0416 67.8334C82.0416 62.5625 83.92 58.0488 87.6766 54.2921C91.4333 50.5354 95.9438 48.6603 101.208 48.6667C106.319 48.6667 110.792 50.545 114.625 54.3017C118.458 58.0584 120.375 62.5689 120.375 67.8334C120.375 73.1042 118.497 77.6179 114.74 81.3746C110.983 85.1313 106.473 87.0064 101.208 87ZM29.3333 144.5C24.0625 144.5 19.5487 142.622 15.792 138.865C12.0354 135.108 10.1602 130.598 10.1666 125.333V19.9167C10.1666 14.6459 12.045 10.1321 15.8016 6.37543C19.5583 2.61877 24.0688 0.743627 29.3333 0.750016H182.667C187.937 0.750016 192.451 2.62835 196.208 6.38502C199.965 10.1417 201.84 14.6522 201.833 19.9167V125.333C201.833 130.604 199.955 135.118 196.198 138.875C192.442 142.631 187.931 144.506 182.667 144.5H29.3333ZM29.3333 125.333H182.667V19.9167H29.3333V125.333ZM10.1666 173.25C7.45134 173.25 5.1737 172.33 3.3337 170.49C1.4937 168.65 0.576896 166.376 0.583285 163.667C0.583285 160.951 1.50328 158.674 3.34328 156.834C5.18328 154.994 7.45773 154.077 10.1666 154.083H201.833C204.549 154.083 206.826 155.003 208.666 156.843C210.506 158.683 211.423 160.958 211.417 163.667C211.417 166.382 210.497 168.66 208.657 170.5C206.817 172.34 204.542 173.256 201.833 173.25H10.1666Z" fill="#EDCB87"/>
</svg>
