<svg width="28" height="28" viewBox="0 0 28 28" fill="none" xmlns="http://www.w3.org/2000/svg">
<path d="M8.16663 16.3337L10.2631 13.8183C11.0938 12.8208 11.5091 12.3227 12.0551 12.3227C12.6023 12.3227 13.0176 12.8208 13.8483 13.8183L14.1516 14.1823C14.9823 15.1798 15.3976 15.678 15.9448 15.678C16.4908 15.678 16.9061 15.1798 17.7368 14.1823L19.8333 11.667" stroke="#E2B577" stroke-width="1.5" stroke-linecap="round"/>
<path d="M25.6666 14.0002C25.6666 19.4998 25.6666 22.2497 23.9575 23.9577C22.2506 25.6668 19.4996 25.6668 14 25.6668C8.50031 25.6668 5.75048 25.6668 4.04131 23.9577C2.33331 22.2508 2.33331 19.4998 2.33331 14.0002C2.33331 8.5005 2.33331 5.75066 4.04131 4.0415C5.75165 2.3335 8.50031 2.3335 14 2.3335C19.4996 2.3335 22.2495 2.3335 23.9575 4.0415C25.0938 5.17783 25.4741 6.775 25.6025 9.3335" stroke="#E2B577" stroke-width="1.5" stroke-linecap="round"/>
</svg>
