<svg width="79" height="72" viewBox="0 0 79 72" fill="none" xmlns="http://www.w3.org/2000/svg">
<path d="M39.8875 60.8813L39.5 61.2688L39.0738 60.8813C20.6675 44.18 8.5 33.1363 8.5 21.9375C8.5 14.1875 14.3125 8.375 22.0625 8.375C28.03 8.375 33.8425 12.25 35.8962 17.52H43.1038C45.1575 12.25 50.97 8.375 56.9375 8.375C64.6875 8.375 70.5 14.1875 70.5 21.9375C70.5 33.1363 58.3325 44.18 39.8875 60.8813ZM56.9375 0.625C50.195 0.625 43.7238 3.76375 39.5 8.685C35.2762 3.76375 28.805 0.625 22.0625 0.625C10.1275 0.625 0.75 9.96375 0.75 21.9375C0.75 36.5463 13.925 48.52 33.8813 66.6163L39.5 71.7313L45.1187 66.6163C65.075 48.52 78.25 36.5463 78.25 21.9375C78.25 9.96375 68.8725 0.625 56.9375 0.625Z" fill="#E2B577"/>
</svg>
